<?xml version="1.0" encoding="UTF-8" standalone="no"?>
<svg
   xmlns:dc="http://purl.org/dc/elements/1.1/"
   xmlns:cc="http://creativecommons.org/ns#"
   xmlns:rdf="http://www.w3.org/1999/02/22-rdf-syntax-ns#"
   xmlns:svg="http://www.w3.org/2000/svg"
   xmlns="http://www.w3.org/2000/svg"
   xmlns:xlink="http://www.w3.org/1999/xlink"
   xmlns:sodipodi="http://sodipodi.sourceforge.net/DTD/sodipodi-0.dtd"
   xmlns:inkscape="http://www.inkscape.org/namespaces/inkscape"
   version="1.1"
   width="52.836494"
   height="30"
   id="svg2"
   sodipodi:docname="Docker_logo.svg"
   inkscape:version="0.92.4 5da689c313, 2019-01-14">
  <sodipodi:namedview
     pagecolor="#ffffff"
     bordercolor="#666666"
     borderopacity="1"
     objecttolerance="10"
     gridtolerance="10"
     guidetolerance="10"
     inkscape:pageopacity="0"
     inkscape:pageshadow="2"
     inkscape:window-width="1904"
     inkscape:window-height="1019"
     id="namedview28"
     showgrid="false"
     inkscape:zoom="0.56885246"
     inkscape:cx="305"
     inkscape:cy="72.319996"
     inkscape:window-x="1926"
     inkscape:window-y="53"
     inkscape:window-maximized="0"
     inkscape:current-layer="svg2" />
  <metadata
     id="metadata4">
    <rdf:RDF>
      <cc:Work
         rdf:about="">
        <dc:format>image/svg+xml</dc:format>
        <dc:type
           rdf:resource="http://purl.org/dc/dcmitype/StillImage" />
        <dc:title />
      </cc:Work>
    </rdf:RDF>
  </metadata>
  <defs
     id="defs6">
    <clipPath
       id="clipPath8">
      <path
         d="M 76,2 V 48 H 54 V 71 H 35.580737 c -0.07818,0.665694 -0.141485,1.332869 -0.205737,2 -1.151162,12.530963 1.036422,24.087546 6.0625,33.96875 L 43.125,110 c 1.011403,1.81678 2.191241,3.52297 3.4375,5.1875 1.244725,1.66248 1.685716,2.58262 2.46875,3.6875 C 62.319911,133.81083 82.129473,141 105,141 155.64836,141 198.63299,118.56201 217.65625,68.15625 231.15302,69.54122 244.09968,66.080358 250,54.5625 240.60137,49.138835 228.52163,50.877226 221.5625,54.375 L 240,2 168,48 H 145 V 2 Z"
         id="path10"
         inkscape:connector-curvature="0" />
    </clipPath>
  </defs>
  <path
     d="m 30.552702,9.47349 h 4.736792 v 4.84218 h 2.395072 c 1.106007,0 2.243633,-0.19704 3.291061,-0.55195 0.514671,-0.17452 1.092361,-0.41738 1.600044,-0.72281 C 41.907008,12.16789 41.56563,11.06554 41.465115,9.97895 41.328654,8.50106 41.626761,6.57739 42.627037,5.42068 l 0.497921,-0.57591 0.593331,0.47695 c 1.493869,1.2002 2.750207,2.87724 2.971651,4.78903 1.798746,-0.52909 3.910575,-0.40395 5.496085,0.51113 l 0.650469,0.37532 -0.342377,0.66822 C 51.15323,14.28248 48.349992,15.09315 45.609327,14.9497 41.508261,25.16415 32.57977,30 21.754019,30 16.161079,30 11.029669,27.90925 8.1076098,22.94703 7.9362894,22.63879 7.7895796,22.31647 7.6339873,21.99989 6.6462475,19.81562 6.3181844,17.42277 6.5407392,15.03191 l 0.066789,-0.71615 H 10.658004 V 9.47358 h 4.736792 V 4.73679 H 24.86838 V 0 h 5.684248 v 9.47358"
     id="path14"
     style="fill:#394d54;stroke-width:0.20715438"
     inkscape:connector-curvature="0" />
  <g
     clip-path="url(#clipPath8)"
     id="g16"
     transform="matrix(0.20715438,0,0,0.20715438,0,-1e-4)">
    <g
       id="g18">
      <g
         transform="translate(0,-22.866)"
         id="g20">
        <path
           d="m 123.85901,3.8110794 h 19.81751 V 23.62805 h -19.81751 z"
           id="path22"
           style="fill:#00acd3"
           inkscape:connector-curvature="0" />
        <path
           d="m 123.85901,26.676485 h 19.81751 v 19.818043 h -19.81751 z"
           id="path24"
           style="fill:#20c2ef"
           inkscape:connector-curvature="0" />
        <path
           d="M 126.29235,21.976904 V 5.4611548 M 129.2642,21.976904 V 5.4611548 m 3.00184,16.5157492 V 5.4611548 m 3.00344,16.5157492 V 5.4611548 M 138.2724,21.976904 V 5.4611548 m 2.97131,16.5157492 V 5.4611548"
           id="path26"
           style="stroke:#394d54;stroke-width:1.55999994"
           inkscape:connector-curvature="0" />
        <use
           transform="translate(0,22.866)"
           id="use28"
           xlink:href="#path26"
           x="0"
           y="0"
           width="100%"
           height="100%" />
      </g>
      <use
         transform="matrix(1,0,0,-1,22.866,4.572651)"
         id="use30"
         xlink:href="#g20"
         x="0"
         y="0"
         width="100%"
         height="100%" />
    </g>
    <use
       transform="translate(-91.464,45.732)"
       id="use32"
       xlink:href="#g18"
       x="0"
       y="0"
       width="100%"
       height="100%" />
    <use
       transform="translate(-45.732,45.732)"
       id="use34"
       xlink:href="#g18"
       x="0"
       y="0"
       width="100%"
       height="100%" />
    <use
       transform="translate(0,45.732)"
       id="use36"
       xlink:href="#g18"
       x="0"
       y="0"
       width="100%"
       height="100%" />
  </g>
  <path
     d="m 221.57014,54.379649 c 1.53332,-11.915247 -7.38383,-21.274779 -12.91407,-25.71836 -6.37269,7.367765 -7.36295,26.677556 2.63498,34.807431 -5.57952,4.956117 -17.33731,9.448435 -29.37574,9.448435 L 34,72.917155 C 32.829255,85.484184 34,146 34,146 h 217 l -0.98657,-91.424 c -9.39863,-5.423665 -21.48419,-3.694326 -28.44332,-0.196552"
     clip-path="url(#clipPath8)"
     id="path38"
     style="fill:#17b5eb"
     inkscape:connector-curvature="0"
     transform="matrix(0.20715438,0,0,0.20715438,0,-1e-4)" />
  <path
     d="m 34,89 v 57 H 251 V 89"
     clip-path="url(#clipPath8)"
     id="path40"
     style="fill-opacity:0.17000002"
     inkscape:connector-curvature="0"
     transform="matrix(0.20715438,0,0,0.20715438,0,-1e-4)" />
  <path
     d="M 111.23736,140.88997 C 97.697741,134.4648 90.265707,125.73081 86.130611,116.19562 L 45,118 l 21,28 45.23736,-5.11003"
     clip-path="url(#clipPath8)"
     id="path42"
     style="fill:#d4edf1"
     inkscape:connector-curvature="0"
     transform="matrix(0.20715438,0,0,0.20715438,0,-1e-4)" />
  <path
     d="m 222.5,53.9375 v 0.03125 c -20.86119,26.889144 -50.78312,50.37872 -82.90625,62.71875 -28.65478,11.00767 -53.638381,11.06039 -70.875,2.21875 -1.85607,-1.04832 -3.675701,-2.21152 -5.5,-3.3125 C 50.582097,106.76175 43.464274,92.152308 44.0625,72.90625 H 34 V 146 H 251 V 50 h -25 z"
     clip-path="url(#clipPath8)"
     id="path44"
     style="fill-opacity:0.08500001"
     inkscape:connector-curvature="0"
     transform="matrix(0.20715438,0,0,0.20715438,0,-1e-4)" />
  <path
     d="m 9.4514186,24.24344 c 2.9343734,0.16061 6.0659874,0.18941 8.7975874,-0.66678"
     id="path46"
     style="fill:none;stroke:#394d54;stroke-width:0.7043249;stroke-linecap:round"
     inkscape:connector-curvature="0" />
  <path
     d="m 21.165013,22.15698 c 0,0.6254 -0.507017,1.13241 -1.132411,1.13241 -0.625506,0 -1.132634,-0.50701 -1.132634,-1.13241 0,-0.62539 0.507128,-1.13263 1.132634,-1.13263 0.625394,0 1.132411,0.50724 1.132411,1.13263 z"
     id="path48"
     style="fill:#d4edf1;stroke-width:0.20715438"
     inkscape:connector-curvature="0" />
  <path
     d="m 20.326272,21.40056 c -0.09885,0.0571 -0.165751,0.1642 -0.165751,0.28668 0,0.18284 0.148222,0.33084 0.331059,0.33084 0.125256,0 0.234094,-0.0696 0.290342,-0.1723 0.03972,0.0957 0.0618,0.20092 0.0618,0.3112 0,0.44789 -0.363122,0.81101 -0.811116,0.81101 -0.447884,0 -0.811227,-0.36312 -0.811227,-0.81101 0,-0.4481 0.363343,-0.81133 0.811227,-0.81133 0.103622,0 0.202474,0.0195 0.29367,0.0549 z"
     id="path50"
     style="fill:#394d54;stroke-width:0.20715438"
     inkscape:connector-curvature="0" />
  <path
     d="m 0,18.67743 h 52.685041 c -1.147167,-0.29101 -3.629552,-0.68409 -3.220167,-2.1875 -2.085869,2.41371 -7.116321,1.69335 -8.385858,0.50314 -1.413769,2.05048 -9.643971,1.27109 -10.218,-0.32629 -1.77234,2.07999 -7.264319,2.07999 -9.03677,0 -0.57425,1.59738 -8.804342,2.37677 -10.21822,0.32629 -1.269539,1.19021 -6.2995455,1.91057 -8.3856369,-0.50314 0.4093855,1.50341 -2.073,1.89649 -3.2203891,2.1875"
     id="path52"
     style="fill:#394d54;stroke-width:0.20715438"
     inkscape:connector-curvature="0" />
</svg>
